<?xml version="1.0" standalone="no"?>
<!DOCTYPE svg PUBLIC "-//W3C//DTD SVG 20010904//EN"
 "http://www.w3.org/TR/2001/REC-SVG-20010904/DTD/svg10.dtd">
<svg version="1.0" xmlns="http://www.w3.org/2000/svg"
 width="512.000000pt" height="514.000000pt" viewBox="0 0 512.000000 514.000000"
 preserveAspectRatio="xMidYMid meet">

<g transform="translate(0.000000,514.000000) scale(0.100000,-0.100000)"
fill="#ffffff" stroke="none">
<path d="M2566 5109 c-30 -24 -33 -51 -11 -123 32 -106 18 -181 -82 -434 -82
-207 -103 -285 -103 -386 0 -184 70 -281 155 -215 24 20 26 26 21 68 -27 203
-22 235 74 481 84 215 102 282 102 385 1 184 -72 290 -156 224z"/>
<path d="M3385 4415 c-28 -28 -31 -53 -10 -110 19 -53 19 -153 -1 -228 -8 -33
-44 -131 -80 -218 -73 -180 -104 -295 -104 -389 0 -72 20 -158 44 -195 32 -48
105 -45 131 5 14 27 14 35 0 82 -33 113 -14 220 83 463 77 191 95 259 96 365
2 190 -80 305 -159 225z"/>
<path d="M1458 4406 c-12 -6 -29 -23 -37 -37 -13 -24 -13 -32 2 -79 20 -63 22
-166 3 -235 -7 -28 -43 -125 -79 -216 -103 -256 -124 -371 -93 -503 20 -85 43
-111 96 -111 35 0 47 5 63 28 21 27 21 29 4 91 -33 123 -20 192 82 455 80 205
106 314 98 410 -6 72 -31 157 -54 182 -19 22 -57 29 -85 15z"/>
<path d="M2305 3195 c-397 -64 -733 -238 -1005 -522 -238 -247 -385 -523 -464
-875 l-6 -27 -263 -3 -262 -3 -67 -32 c-93 -44 -151 -100 -196 -191 -34 -70
-37 -83 -37 -161 0 -134 8 -147 342 -523 l290 -326 5 -111 c4 -102 7 -115 41
-184 44 -90 103 -147 195 -190 l67 -32 1615 0 1615 0 67 32 c160 75 238 209
238 408 l0 74 291 328 c305 342 334 383 346 480 12 107 -42 248 -124 324 -24
22 -74 55 -111 72 l-67 32 -262 3 -263 3 -9 37 c-5 20 -11 46 -13 57 -3 17 56
50 402 225 404 205 405 205 428 250 40 78 19 155 -58 208 -68 46 -83 41 -501
-169 -210 -104 -382 -189 -383 -187 -2 2 -21 38 -44 81 -93 174 -196 310 -340
449 -246 238 -534 388 -879 459 -131 27 -457 35 -588 14z m525 -165 c472 -77
901 -385 1135 -815 25 -45 45 -86 45 -91 0 -8 -120 -74 -134 -74 -2 0 -27 42
-56 92 -127 224 -291 399 -496 530 -144 92 -343 168 -522 199 -709 121 -1400
-305 -1614 -993 l-33 -108 -83 0 -82 0 6 28 c104 435 356 787 729 1019 327
204 708 277 1105 213z m-33 -319 c381 -74 715 -321 890 -657 l42 -80 -73 -36
-74 -37 -18 42 c-62 137 -218 322 -355 419 -288 206 -654 262 -996 153 -318
-101 -587 -362 -703 -682 l-23 -63 -83 0 c-46 0 -84 2 -84 4 0 3 14 44 31 93
153 435 516 753 964 843 127 26 352 26 482 1z m26 -335 c195 -58 360 -169 493
-332 34 -41 124 -191 124 -206 0 -10 -115 -68 -135 -68 -8 0 -28 26 -44 59
-35 69 -111 166 -172 220 -352 309 -885 255 -1167 -120 -22 -30 -52 -78 -67
-106 l-26 -53 -85 0 c-48 0 -84 4 -84 10 0 21 51 123 96 192 90 140 232 268
379 340 155 77 257 99 450 94 127 -3 164 -8 238 -30z m-116 -301 c136 -32 270
-120 357 -235 l49 -65 -97 -3 -97 -3 -47 42 c-117 102 -279 142 -425 104 -77
-20 -142 -54 -199 -104 l-47 -42 -97 3 -97 3 49 65 c86 113 220 203 352 235
76 18 222 18 299 0z m1417 -281 c9 -24 9 -24 -41 -24 l-48 1 35 19 c43 24 46
24 54 4z m651 -369 c14 -13 25 -31 25 -40 0 -9 -144 -178 -320 -376 l-320
-361 0 -134 c0 -130 -1 -136 -25 -159 l-24 -25 -1551 0 -1551 0 -24 25 c-24
23 -25 29 -25 159 l0 134 -320 361 c-176 198 -320 367 -320 376 0 9 11 27 25
40 l24 25 2191 0 2191 0 24 -25z"/>
</g>
</svg>
